<?xml version="1.0" encoding="utf-8"?>
<!-- Generator: Adobe Illustrator 23.0.4, SVG Export Plug-In . SVG Version: 6.00 Build 0)  -->
<svg version="1.1" id="Layer_1" xmlns="http://www.w3.org/2000/svg" xmlns:xlink="http://www.w3.org/1999/xlink" x="0px" y="0px"
	 viewBox="0 0 794.38 190" style="enable-background:new 0 0 794.38 190;" xml:space="preserve">
<path id="Jacobs_wordmark" d="M72.32,185c40.98,0,68.78-28.78,68.78-68.78V95h-35.61v21.22c0,20.98-12.93,34.63-33.17,34.63
	c-19.02,0-30-11.95-31.95-28.78H5C6.96,158.9,33.54,185,72.32,185L72.32,185z M105.49,72.56h35.61V5H71.59v33.66h33.9V72.56z
	 M237.93,181.59h31.71c-2.44-10.24-4.15-27.07-4.15-38.78v-39.27c0-30.24-18.78-48.78-51.95-48.78c-35.85,0-51.46,22.68-53.9,40.73
	h31.71c1.95-8.05,9.02-13.17,21.22-13.17c11.95,0,19.76,6.1,19.76,18.29v5.12l-30.73,1.46c-32.44,1.71-45.61,18.05-45.61,40
	c0,23.66,16.83,37.8,42.44,37.8c19.02,0,31.22-9.27,37.32-16.83C236.22,173.29,237.2,178.17,237.93,181.59L237.93,181.59z
	 M232.32,136.95c0,16.34-13.9,21.71-25.12,21.71c-11.46,0-17.8-4.39-17.8-13.66c0-8.05,5.12-13.9,19.02-14.63l23.9-1.22V136.95z
	 M345.25,185c16.83,0,34.15-5.85,44.63-15.37l-12.2-25.61c-9.27,5.85-21.22,9.76-30.49,9.76c-19.02,0-31.22-12.93-31.22-33.9
	c0-20.24,11.95-33.9,32.93-33.9c8.78,0,19.02,3.9,27.56,9.51l13.41-26.59c-10.73-9.27-25.37-14.15-41.71-14.15
	c-42.2,0-66.83,30-66.83,65.12C281.35,159.88,305.74,185,345.25,185L345.25,185z M455.98,185c38.05,0,65.12-25.12,65.12-65.12
	s-25.85-65.12-63.9-65.12c-37.32,0-63.9,27.32-63.9,65.12C393.3,158.66,418.66,185,455.98,185L455.98,185z M457.2,154.51
	c-17.8,0-29.27-12.93-29.27-34.63c0-21.71,11.46-34.63,29.27-34.63c17.8,0,29.27,12.93,29.27,34.63
	C486.47,141.59,475,154.51,457.2,154.51L457.2,154.51z M606.96,185c29.51,0,55.85-23.9,55.85-65.12c0-40-23.9-65.12-54.63-65.12
	c-16.59,0-29.27,7.07-37.07,18.78V5h-33.66v142.2c0,11.71-0.49,21.95-1.46,34.39h31.71c0.49-4.88,0.98-10,1.22-15.61
	C577.93,178.66,591.83,185,606.96,185L606.96,185z M598.91,154.51c-17.8,0-29.27-12.93-29.27-34.63c0-21.71,11.46-34.63,29.27-34.63
	c17.8,0,29.27,12.93,29.27,34.63C628.18,141.59,616.71,154.51,598.91,154.51L598.91,154.51z M722.08,185
	c32.2,0,54.63-16.59,54.63-40.73c0-20.73-12.2-32.93-37.8-38.29l-16.1-3.41c-8.05-1.71-12.44-5.37-12.44-10
	c0-6.34,6.1-10.24,16.1-10.24c11.22,0,21.95,3.17,34.63,10.49l10.98-25.12c-11.46-8.29-27.07-12.93-44.39-12.93
	c-31.46,0-51.95,16.1-51.95,41.22c0,20,11.95,31.71,37.32,36.83l14.88,3.17c10,2.2,13.41,5.12,13.41,10.98c0,6.34-7.07,10-19.76,10
	c-10.49,0-25.85-5.61-38.78-14.15l-10.73,25.37C683.05,178.41,702.08,184.76,722.08,185z"/>
<g>
	<path d="M772.78,176.7c0-0.98,0.2-1.84,0.6-2.56c0.4-0.73,0.97-1.29,1.69-1.68c0.73-0.4,1.58-0.59,2.56-0.59
		c0.98,0,1.84,0.2,2.57,0.59c0.73,0.4,1.29,0.96,1.69,1.68c0.4,0.73,0.6,1.58,0.6,2.56c0,0.98-0.2,1.84-0.6,2.56
		c-0.4,0.73-0.97,1.29-1.69,1.68s-1.58,0.59-2.57,0.59c-0.98,0-1.84-0.2-2.56-0.59s-1.29-0.96-1.69-1.68
		C772.98,178.54,772.78,177.68,772.78,176.7z M777.64,180.66c1.25,0,2.21-0.34,2.88-1.02c0.67-0.68,1-1.66,1-2.94
		c0-1.28-0.34-2.25-1-2.94c-0.67-0.68-1.63-1.02-2.88-1.02c-1.25,0-2.21,0.34-2.89,1.03c-0.68,0.69-1.01,1.67-1.01,2.93
		c0,1.26,0.34,2.24,1.01,2.93C775.43,180.32,776.39,180.66,777.64,180.66z M776.09,179.07v-4.77c0.29-0.03,0.57-0.04,0.82-0.06
		c0.26-0.01,0.47-0.02,0.63-0.02c1.34,0,2.01,0.5,2.01,1.51c0,0.66-0.31,1.12-0.94,1.38l1.05,1.95h-0.79l-0.92-1.78
		c-0.14,0.01-0.29,0.02-0.44,0.02c-0.28,0-0.53-0.01-0.75-0.04v1.8H776.09z M777.54,174.86c-0.28,0-0.54,0.01-0.77,0.02v1.76
		c0.23,0.03,0.47,0.04,0.71,0.04c0.91,0,1.36-0.31,1.36-0.94c0-0.33-0.1-0.56-0.31-0.69C778.33,174.93,778,174.86,777.54,174.86z"/>
</g>
</svg>
